# Blender v2.79 (sub 0) OBJ File: 'controller v1.blend'
# www.blender.org
o Cube.006_Cube.016
v -63.727409 -22.102402 20.879356
v -63.727409 102.947670 20.879356
v -63.727409 -22.102402 -21.088524
v -63.727409 102.947670 -21.088524
v -45.695335 -22.102402 20.879356
v -45.695335 102.947670 20.879356
v -45.695335 -22.102402 -21.088524
v -45.695335 102.947670 -21.088524
v -63.727409 -22.102402 20.879356
v -63.727409 102.947670 20.879356
v -63.727409 -22.102402 -21.088524
v -63.727409 102.947670 -21.088524
v -63.727409 -22.102402 20.879356
v -63.727409 102.947670 20.879356
v -63.727409 -22.102402 -21.088524
v -63.727409 102.947670 -21.088524
v -63.727409 -22.102402 -0.104585
v -63.727409 40.422630 20.879356
v -63.727409 102.947670 -0.104585
v -63.727409 40.422630 -21.088524
v -54.711372 -22.102402 -21.088524
v -54.711372 102.947670 -21.088524
v -45.695335 40.422630 -21.088524
v -45.695335 -22.102402 -0.104585
v -45.695335 102.947670 -0.104585
v -45.695335 40.422630 20.879356
v -54.711372 -22.102402 20.879356
v -54.711372 102.947670 20.879356
v -63.727409 -22.102402 -0.104585
v -63.727409 40.422630 20.879356
v -63.727409 102.947670 -0.104585
v -63.727409 40.422630 -21.088524
v -63.727409 102.947670 -21.088524
v -63.727409 102.947670 20.879356
v -63.727409 -22.102402 20.879356
v -63.727409 -22.102402 -21.088524
v -63.727409 -22.102402 -0.104585
v -63.727409 40.422630 20.879356
v -63.727409 102.947670 -0.104585
v -63.727409 40.422630 -21.088524
v -63.727409 -22.102402 -21.088524
v -63.727409 102.947670 -21.088524
v -63.727409 102.947670 20.879356
v -63.727409 -22.102402 20.879356
v -63.727409 102.947670 -21.088524
v -63.727409 -22.102402 -0.104585
v -63.727409 102.947670 -0.104585
v -63.727409 40.422630 20.879356
v -63.727409 40.422630 -21.088524
v -63.727409 40.422630 20.879356
v -63.727409 40.422630 -21.088524
v -63.727409 -22.102402 -0.104585
v -54.711372 -22.102402 -0.104585
v -54.711372 102.947670 -0.104585
v -45.695335 40.422630 -0.104585
v -54.711372 40.422630 -21.088524
v -63.727409 102.947670 -0.104585
v -54.711372 40.422630 20.879356
v -63.727409 102.947670 20.879356
v -63.727409 -22.102402 20.879356
v -63.727409 -22.102402 -21.088524
v -63.727409 40.422630 20.879356
v -63.727409 40.422630 -21.088524
v -63.727409 -22.102402 -0.104585
v -63.727409 102.947670 -0.104585
v -63.727409 104.942802 -23.087502
v -63.727409 104.942802 22.880989
v -63.727409 -24.097610 22.880989
v -63.727409 -24.097610 -23.087502
v -63.727409 40.422630 22.880989
v -63.727409 40.422630 -23.087502
v -63.727409 -24.097610 -0.104585
v -63.727409 104.942802 -0.104585
v -45.695335 104.942802 -23.087502
v -45.695335 104.942802 22.880989
v -45.695335 -24.097610 22.880989
v -45.695335 -24.097610 -23.087502
v -45.695335 40.422630 22.880989
v -45.695335 40.422630 -23.087502
v -45.695335 -24.097610 -0.104585
v -45.695335 104.942802 -0.104585
v -43.690987 104.942802 -23.087502
v -43.690987 104.942802 22.880989
v -43.690987 -24.097610 22.880989
v -43.690987 -24.097610 -23.087502
v -43.690987 40.422630 22.880989
v -43.690987 40.422630 -23.087502
v -43.690987 -24.097610 -0.104585
v -43.690987 104.942802 -0.104585
v -43.690987 40.422630 -0.104585
v -43.690987 -10.835098 11.588738
v -45.695335 -10.835098 11.588738
v -43.690987 -11.138887 12.910016
v -45.695335 -11.138887 12.910016
v -43.690987 -10.914272 12.243783
v -45.695335 -10.914272 12.243783
v -43.690987 -11.431320 13.430612
v -45.695335 -11.431320 13.430612
v -43.690987 -11.768503 13.861711
v -45.695335 -11.768503 13.861711
v -43.690987 -12.189978 14.229447
v -45.695335 -12.189978 14.229447
v -43.690987 -12.723328 14.574811
v -45.695335 -12.723328 14.574811
v -43.690987 -13.374102 14.815595
v -45.695335 -13.374102 14.815595
v -43.690987 -14.192692 14.944509
v -45.695335 -14.192692 14.944509
v -43.690987 -14.881504 14.845355
v -45.695335 -14.881504 14.845355
v -43.690987 -15.581505 14.623143
v -45.695335 -15.581505 14.623143
v -43.690987 -16.543711 13.951661
v -45.695335 -16.543711 13.951661
v -43.690987 -16.098967 14.337747
v -45.695335 -16.098967 14.337747
v -43.690987 -17.411833 12.405332
v -45.695335 -17.411833 12.405332
v -43.690987 -16.877783 13.586795
v -45.695335 -16.877783 13.586795
v -43.690987 -17.550282 11.588738
v -45.695335 -17.550282 11.588738
v -43.690987 -17.127945 13.177178
v -45.695335 -17.127945 13.177178
v -43.690987 -17.411833 -12.614505
v -45.695335 -17.411833 -12.614505
v -43.690987 -17.127945 -13.386352
v -45.695335 -17.127945 -13.386352
v -43.690987 -10.914272 -12.452958
v -45.695335 -10.914272 -12.452958
v -43.690987 -11.138887 -13.119189
v -45.695335 -11.138887 -13.119189
v -43.690987 -17.550282 -11.797912
v -45.695335 -17.550282 -11.797912
v -43.690987 -10.835098 -11.797912
v -45.695335 -10.835098 -11.797912
v -43.690987 -10.835098 -8.442147
v -45.695335 -10.835098 -8.442147
v -43.690987 -17.550282 -8.442147
v -45.695335 -17.550282 -8.442147
v -43.690987 -17.550282 -0.104587
v -45.695335 -17.550282 -0.104587
v -43.690987 -10.835098 -0.104587
v -45.695335 -10.835098 -0.104587
v -43.690987 -17.550282 8.232972
v -45.695335 -17.550282 8.232972
v -43.690987 -10.835098 8.232972
v -45.695335 -10.835098 8.232972
v -43.690987 -16.877783 -13.795970
v -45.695335 -16.877783 -13.795970
v -43.690987 -11.768503 -14.070886
v -45.695335 -11.768503 -14.070886
v -43.690987 -11.431320 -13.639787
v -45.695335 -11.431320 -13.639787
v -43.690987 -16.543709 -14.160836
v -45.695335 -16.543711 -14.160836
v -43.690987 -12.189978 -14.438622
v -45.695335 -12.189978 -14.438622
v -43.690987 -12.723328 -14.783986
v -45.695335 -12.723328 -14.783986
v -43.690987 -16.098967 -14.546922
v -45.695335 -16.098967 -14.546922
v -43.690987 -15.581505 -14.832318
v -45.695335 -15.581505 -14.832318
v -43.690987 -14.881500 -15.054528
v -45.695335 -14.881504 -15.054528
v -43.690987 -13.374100 -15.024770
v -45.695335 -13.374102 -15.024770
v -43.690987 -14.192692 -15.153682
v -45.695335 -14.192692 -15.153682
v -56.228397 60.520409 22.880989
v -56.228397 60.520409 20.879353
v -50.869316 51.517914 22.880989
v -50.869316 51.517914 20.879353
v -50.869316 60.520409 22.880989
v -53.804932 60.520409 22.880989
v -50.869316 60.520409 20.879356
v -56.228397 51.517914 22.880989
v -56.228397 51.517914 20.879353
v -51.536087 77.686684 22.880989
v -51.536087 77.686668 20.879353
v -51.536087 68.684189 22.880989
v -51.536087 68.684181 20.879353
v -46.177006 68.684189 22.880989
v -46.177006 68.684181 20.879353
v -46.177006 77.686684 22.880989
v -46.177006 77.686684 20.879356
v -54.711372 51.517914 20.879356
v -54.711372 60.520409 20.879356
vn 0.0000 -0.0000 -1.0000
vn 0.0000 0.0000 1.0000
vn -1.0000 0.0000 0.0000
vn 0.0000 -1.0000 0.0000
vn 0.0000 1.0000 0.0000
vn 1.0000 0.0000 0.0000
vn 0.0000 0.8534 -0.5212
vn 0.0000 -0.7877 0.6161
vn 0.0000 0.9859 -0.1672
vn 0.0000 -0.9928 0.1200
vn 0.0000 -0.3470 0.9379
vn 0.0000 -0.3470 -0.9379
vn 0.0000 -0.1556 0.9878
vn 0.0000 -0.9476 -0.3195
vn 0.0000 0.3026 -0.9531
vn -0.0000 0.7375 0.6753
vn 0.0000 0.9859 0.1672
vn 0.0000 -0.9476 0.3195
vn 0.0000 -0.9928 -0.1200
vn 0.0000 -0.7877 -0.6161
vn 0.0000 0.4829 -0.8756
vn 0.0000 -0.6574 0.7535
vn 0.0000 0.1425 0.9898
vn 0.0000 -0.8719 -0.4897
vn 0.0000 0.3026 0.9531
vn 0.0000 -0.6574 -0.7535
vn 0.0000 0.9385 0.3452
vn 0.0000 0.9385 -0.3452
vn 0.0000 -0.5435 0.8394
vn 0.0000 0.6556 0.7551
vn 0.0000 0.7375 -0.6753
vn 0.0000 -0.5435 -0.8394
vn 0.0000 0.8534 0.5212
vn 0.0000 -0.1556 -0.9878
vn 0.0000 0.6555 -0.7552
vn 0.0000 -0.8719 0.4897
vn 0.0000 0.4829 0.8756
vn 0.0000 0.1425 -0.9898
vn 0.0000 0.6556 -0.7551
s off
f 177//1 189//1 183//1
f 57//2 12//2 33//2
f 23//2 22//2 56//2
f 26//3 25//3 55//3
f 22//4 25//4 54//4
f 27//5 24//5 53//5
f 52//2 9//2 35//2
f 51//2 11//2 36//2
f 50//2 10//2 34//2
f 49//2 15//2 41//2
f 48//2 14//2 43//2
f 47//2 16//2 42//2
f 46//2 13//2 44//2
f 52//2 61//2 64//2
f 34//2 62//2 59//2
f 51//2 45//2 63//2
f 57//2 59//2 65//2
f 41//2 37//2 46//2
f 11//2 46//2 29//2
f 29//2 44//2 9//2
f 43//2 39//2 47//2
f 10//2 47//2 31//2
f 31//2 42//2 12//2
f 44//2 38//2 48//2
f 9//2 48//2 30//2
f 30//2 43//2 10//2
f 42//2 40//2 49//2
f 12//2 49//2 32//2
f 32//2 41//2 11//2
f 35//2 30//2 50//2
f 1//2 50//2 18//2
f 18//2 34//2 2//2
f 33//2 32//2 51//2
f 4//2 51//2 20//2
f 20//2 36//2 3//2
f 36//2 29//2 52//2
f 3//2 52//2 17//2
f 17//2 35//2 1//2
f 1//5 53//5 17//5
f 17//5 21//5 3//5
f 53//5 7//5 21//5
f 4//4 54//4 19//4
f 19//4 28//4 2//4
f 54//4 6//4 28//4
f 5//3 108//3 110//3
f 7//3 170//3 168//3
f 55//3 8//3 23//3
f 7//2 56//2 21//2
f 21//2 20//2 3//2
f 56//2 4//2 20//2
f 34//2 31//2 57//2
f 2//2 57//2 19//2
f 19//2 33//2 4//2
f 179//1 188//1 58//1
f 18//1 27//1 1//1
f 58//1 5//1 27//1
f 50//2 60//2 62//2
f 35//2 64//2 60//2
f 33//2 65//2 45//2
f 36//2 63//2 61//2
f 59//3 73//3 65//3
f 45//3 71//3 63//3
f 61//3 72//3 64//3
f 61//3 71//3 69//3
f 45//3 73//3 66//3
f 60//3 72//3 68//3
f 60//3 70//3 62//3
f 59//3 70//3 67//3
f 71//1 77//1 69//1
f 67//5 81//5 73//5
f 69//4 80//4 72//4
f 68//2 78//2 70//2
f 67//2 171//2 180//2
f 73//5 74//5 66//5
f 72//4 76//4 68//4
f 66//1 79//1 71//1
f 81//5 82//5 74//5
f 80//4 84//4 76//4
f 74//1 87//1 79//1
f 79//1 85//1 77//1
f 75//5 89//5 81//5
f 77//4 88//4 80//4
f 76//2 86//2 78//2
f 78//2 83//2 75//2
f 90//6 83//6 86//6
f 82//6 90//6 87//6
f 84//6 107//6 105//6
f 169//6 165//6 85//6
f 124//7 119//7 123//7
f 140//5 141//5 139//5
f 154//8 151//8 153//8
f 122//9 117//9 121//9
f 138//4 135//4 137//4
f 136//10 129//10 135//10
f 160//11 167//11 159//11
f 106//12 103//12 105//12
f 168//13 169//13 167//13
f 94//14 95//14 93//14
f 112//15 109//15 111//15
f 156//16 149//16 155//16
f 126//17 133//17 125//17
f 130//18 131//18 129//18
f 96//19 91//19 95//19
f 100//20 97//20 99//20
f 116//21 111//21 115//21
f 152//22 157//22 151//22
f 170//23 165//23 169//23
f 98//24 93//24 97//24
f 166//25 163//25 165//25
f 92//4 147//4 91//4
f 102//26 99//26 101//26
f 128//27 125//27 127//27
f 118//28 123//28 117//28
f 158//29 159//29 157//29
f 134//5 139//5 133//5
f 162//30 155//30 161//30
f 120//31 113//31 119//31
f 146//5 121//5 145//5
f 104//32 101//32 103//32
f 148//4 143//4 147//4
f 150//33 127//33 149//33
f 108//34 105//34 107//34
f 114//35 115//35 113//35
f 132//36 153//36 131//36
f 144//4 137//4 143//4
f 164//37 161//37 163//37
f 110//38 107//38 109//38
f 141//5 146//5 145//5
f 181//1 28//1 6//1
f 171//6 179//6 172//6
f 181//6 182//6 183//6
f 188//5 179//5 178//5
f 186//4 181//4 187//4
f 173//3 177//3 174//3
f 171//4 172//4 189//4
f 185//5 182//5 184//5
f 184//3 187//3 185//3
f 173//2 78//2 184//2
f 26//1 58//1 174//1
f 58//1 188//1 174//1
f 183//1 185//1 177//1
f 185//1 26//1 174//1
f 177//1 185//1 174//1
f 189//1 181//1 183//1
f 57//2 31//2 12//2
f 23//2 8//2 22//2
f 26//3 6//3 25//3
f 22//4 8//4 25//4
f 27//5 5//5 24//5
f 52//2 29//2 9//2
f 51//2 32//2 11//2
f 50//2 30//2 10//2
f 49//2 40//2 15//2
f 48//2 38//2 14//2
f 47//2 39//2 16//2
f 46//2 37//2 13//2
f 52//2 36//2 61//2
f 34//2 50//2 62//2
f 51//2 33//2 45//2
f 57//2 34//2 59//2
f 41//2 15//2 37//2
f 11//2 41//2 46//2
f 29//2 46//2 44//2
f 43//2 14//2 39//2
f 10//2 43//2 47//2
f 31//2 47//2 42//2
f 44//2 13//2 38//2
f 9//2 44//2 48//2
f 30//2 48//2 43//2
f 42//2 16//2 40//2
f 12//2 42//2 49//2
f 32//2 49//2 41//2
f 35//2 9//2 30//2
f 1//2 35//2 50//2
f 18//2 50//2 34//2
f 33//2 12//2 32//2
f 4//2 33//2 51//2
f 20//2 51//2 36//2
f 36//2 11//2 29//2
f 3//2 36//2 52//2
f 17//2 52//2 35//2
f 1//5 27//5 53//5
f 17//5 53//5 21//5
f 53//5 24//5 7//5
f 4//4 22//4 54//4
f 19//4 54//4 28//4
f 54//4 25//4 6//4
f 142//3 24//3 146//3
f 24//3 5//3 122//3
f 146//3 24//3 122//3
f 5//3 26//3 104//3
f 26//3 55//3 92//3
f 104//3 26//3 102//3
f 55//3 144//3 148//3
f 55//3 148//3 92//3
f 92//3 96//3 26//3
f 96//3 94//3 26//3
f 118//3 122//3 5//3
f 124//3 118//3 5//3
f 94//3 98//3 26//3
f 98//3 100//3 26//3
f 120//3 124//3 5//3
f 114//3 120//3 5//3
f 100//3 102//3 26//3
f 116//3 114//3 5//3
f 112//3 116//3 5//3
f 5//3 104//3 106//3
f 110//3 112//3 5//3
f 5//3 106//3 108//3
f 7//3 24//3 134//3
f 24//3 142//3 140//3
f 140//3 134//3 24//3
f 55//3 23//3 136//3
f 23//3 7//3 160//3
f 138//3 144//3 55//3
f 136//3 138//3 55//3
f 7//3 134//3 126//3
f 130//3 136//3 23//3
f 132//3 130//3 23//3
f 7//3 126//3 128//3
f 7//3 128//3 150//3
f 154//3 132//3 23//3
f 152//3 154//3 23//3
f 7//3 150//3 156//3
f 7//3 156//3 162//3
f 158//3 152//3 23//3
f 160//3 158//3 23//3
f 7//3 162//3 164//3
f 7//3 164//3 166//3
f 168//3 160//3 7//3
f 7//3 166//3 170//3
f 55//3 25//3 8//3
f 7//2 23//2 56//2
f 21//2 56//2 20//2
f 56//2 22//2 4//2
f 34//2 10//2 31//2
f 2//2 34//2 57//2
f 19//2 57//2 33//2
f 58//1 18//1 179//1
f 18//1 2//1 172//1
f 179//1 18//1 172//1
f 2//1 28//1 172//1
f 28//1 189//1 172//1
f 18//1 58//1 27//1
f 58//1 26//1 5//1
f 50//2 35//2 60//2
f 35//2 52//2 64//2
f 33//2 57//2 65//2
f 36//2 51//2 63//2
f 59//3 67//3 73//3
f 45//3 66//3 71//3
f 61//3 69//3 72//3
f 61//3 63//3 71//3
f 45//3 65//3 73//3
f 60//3 64//3 72//3
f 60//3 68//3 70//3
f 59//3 62//3 70//3
f 71//1 79//1 77//1
f 67//5 75//5 81//5
f 69//4 77//4 80//4
f 68//2 76//2 78//2
f 75//2 67//2 180//2
f 67//2 70//2 171//2
f 70//2 178//2 171//2
f 171//2 176//2 182//2
f 180//2 186//2 75//2
f 171//2 182//2 180//2
f 73//5 81//5 74//5
f 72//4 80//4 76//4
f 66//1 74//1 79//1
f 81//5 89//5 82//5
f 80//4 88//4 84//4
f 74//1 82//1 87//1
f 79//1 87//1 85//1
f 75//5 83//5 89//5
f 77//4 85//4 88//4
f 76//2 84//2 86//2
f 78//2 86//2 83//2
f 90//6 89//6 83//6
f 82//6 89//6 90//6
f 90//6 86//6 91//6
f 86//6 84//6 103//6
f 84//6 88//6 121//6
f 88//6 141//6 145//6
f 145//6 121//6 88//6
f 147//6 143//6 90//6
f 91//6 147//6 90//6
f 84//6 121//6 117//6
f 95//6 91//6 86//6
f 93//6 95//6 86//6
f 84//6 117//6 123//6
f 84//6 123//6 119//6
f 97//6 93//6 86//6
f 99//6 97//6 86//6
f 84//6 119//6 113//6
f 84//6 113//6 115//6
f 101//6 99//6 86//6
f 103//6 101//6 86//6
f 84//6 115//6 111//6
f 84//6 111//6 109//6
f 105//6 103//6 84//6
f 84//6 109//6 107//6
f 85//6 87//6 159//6
f 87//6 90//6 135//6
f 159//6 87//6 157//6
f 90//6 143//6 137//6
f 90//6 137//6 135//6
f 141//6 88//6 139//6
f 88//6 85//6 133//6
f 139//6 88//6 133//6
f 135//6 129//6 87//6
f 129//6 131//6 87//6
f 125//6 133//6 85//6
f 131//6 153//6 87//6
f 153//6 151//6 87//6
f 127//6 125//6 85//6
f 149//6 127//6 85//6
f 151//6 157//6 87//6
f 155//6 149//6 85//6
f 161//6 155//6 85//6
f 85//6 159//6 167//6
f 163//6 161//6 85//6
f 165//6 163//6 85//6
f 85//6 167//6 169//6
f 124//7 120//7 119//7
f 140//5 142//5 141//5
f 154//8 152//8 151//8
f 122//9 118//9 117//9
f 138//4 136//4 135//4
f 136//10 130//10 129//10
f 160//11 168//11 167//11
f 106//12 104//12 103//12
f 168//13 170//13 169//13
f 94//14 96//14 95//14
f 112//15 110//15 109//15
f 156//16 150//16 149//16
f 126//17 134//17 133//17
f 130//18 132//18 131//18
f 96//19 92//19 91//19
f 100//20 98//20 97//20
f 116//21 112//21 111//21
f 152//22 158//22 157//22
f 170//23 166//23 165//23
f 98//24 94//24 93//24
f 166//25 164//25 163//25
f 92//4 148//4 147//4
f 102//26 100//26 99//26
f 128//27 126//27 125//27
f 118//28 124//28 123//28
f 158//29 160//29 159//29
f 134//5 140//5 139//5
f 162//30 156//30 155//30
f 120//31 114//31 113//31
f 146//5 122//5 121//5
f 104//32 102//32 101//32
f 148//4 144//4 143//4
f 150//33 128//33 127//33
f 108//34 106//34 105//34
f 114//39 116//39 115//39
f 132//36 154//36 153//36
f 144//4 138//4 137//4
f 164//37 162//37 161//37
f 110//38 108//38 107//38
f 141//5 142//5 146//5
f 6//1 26//1 185//1
f 6//1 185//1 187//1
f 181//1 189//1 28//1
f 6//1 187//1 181//1
f 171//6 178//6 179//6
f 181//6 180//6 182//6
f 178//5 173//5 188//5
f 173//5 174//5 188//5
f 186//4 180//4 181//4
f 173//3 175//3 177//3
f 189//4 177//4 176//4
f 177//4 175//4 176//4
f 176//4 171//4 189//4
f 185//5 183//5 182//5
f 184//3 186//3 187//3
f 78//2 75//2 184//2
f 75//2 186//2 184//2
f 184//2 182//2 175//2
f 182//2 176//2 175//2
f 178//2 70//2 78//2
f 173//2 178//2 78//2
f 175//2 173//2 184//2
