# Blender v2.79 (sub 0) OBJ File: 'speaker.blend'
# www.blender.org
o Cube.000
v -158.950333 33.255753 -20.819065
v -22.576050 33.255753 -20.819065
v -158.950333 6.664734 -20.819065
v -37.973366 6.664734 -20.819065
v -22.576050 33.255753 13.321915
v -158.950333 33.255753 13.321915
v -158.950333 6.664734 13.321915
v -37.973366 6.664734 13.321915
v -36.563484 5.590012 -20.819065
v -22.576050 15.720711 -20.819065
v -22.576050 15.720711 13.321915
v -158.950333 30.381645 -1.903816
v -158.950333 21.857903 -1.903816
v -158.950333 30.381645 -10.434753
v -158.950333 21.857903 -10.434753
v -160.288040 34.400574 -20.819065
v -21.239105 34.400574 -20.819065
v -160.288040 30.381645 -1.903816
v -160.288040 21.857903 -1.903816
v -160.288040 5.590012 -20.819065
v -160.288040 30.381645 -10.434753
v -160.288040 21.857903 -10.434753
v -21.239090 14.191956 -20.819065
v -36.563484 14.191956 -20.819065
v -35.473366 13.220711 16.138657
v -37.973366 6.664734 16.138657
v -158.950333 6.664734 16.138657
v -158.950333 33.255753 16.138657
v -22.576050 33.255753 16.138657
v -22.576050 15.720711 16.138657
v -161.450333 35.755753 16.138657
v -161.450333 4.164734 16.138657
v -20.076057 35.755753 16.138657
v -20.076050 13.220711 16.138657
v -35.473366 4.164734 16.138657
v -9.232132 45.596001 14.796886
v -11.232132 47.596001 14.796886
v -11.232132 47.596001 16.139561
v -9.232132 45.596001 16.139561
v -10.582932 46.121094 16.139446
v -9.232132 -4.793716 16.139561
v -11.232132 -6.793716 16.139561
v -11.077667 -6.023010 16.139496
v -10.822372 -5.580818 16.139507
v -10.184891 -5.035233 16.139477
v -11.232132 -6.793716 14.796886
v -9.232132 -4.793716 14.796886
v -170.860519 47.596001 14.796886
v -172.860519 45.596001 14.796886
v -170.860504 -6.793716 16.139561
v -172.860504 -4.793716 16.139561
v -171.418030 -5.408348 16.139446
v -172.860519 -4.793716 14.796886
v -170.860519 -6.793716 14.796886
v -172.860504 45.596001 16.139561
v -170.860504 47.596001 16.139561
v -171.472687 46.155876 16.139450
v -37.061073 15.720711 -20.819065
v -37.973366 14.808418 -20.819065
v -37.061073 15.720711 13.321915
v -37.973366 14.808418 13.321915
v -37.973366 14.808418 16.138657
v -37.061073 15.720711 16.138657
v -37.328285 15.075630 16.138657
v -160.288040 5.590012 12.487003
v -162.598267 3.279785 14.797161
v -162.598267 36.710800 14.797169
v -160.288040 34.400574 12.487003
v -21.239105 34.400574 12.487003
v -18.928871 36.710800 14.797161
v -36.563484 5.590012 12.487003
v -31.837830 3.279785 14.797169
v -19.290115 10.104736 14.797169
v -21.239090 14.191956 12.487003
v -36.563484 14.191956 12.487003
v -31.837830 10.276993 14.797169
v -90.875153 34.400574 -20.819065
v -90.653397 34.400574 -20.819065
v -90.574188 47.596001 14.796886
v -90.951523 47.596001 14.796886
v -91.742928 34.400574 12.487003
v -89.873085 34.400574 12.487003
v -89.876938 36.710800 14.797161
v -91.739075 36.710800 14.797169
v -91.153961 38.943596 8.890518
v -90.374588 38.943596 8.890518
v -90.378441 41.253830 11.200680
v -91.150101 41.253830 11.200680
v -96.355179 5.590012 -20.819065
v -96.355179 -6.793716 14.796886
v -96.789177 3.103790 10.000721
v -95.623169 5.590012 12.487003
v -97.087196 5.590012 12.487003
v -97.085953 3.279785 14.797161
v -95.538666 3.279785 14.797169
v -96.009506 3.103790 10.000721
v -96.787933 0.793564 12.310875
v -95.925011 0.793564 12.310879
vn 0.0000 0.0000 -1.0000
vn -1.0000 0.0000 0.0000
vn 0.0000 1.0000 0.0000
vn 0.0000 -1.0000 0.0000
vn 0.0000 0.0000 1.0000
vn 1.0000 0.0000 0.0000
vn 0.0000 -0.0001 1.0000
vn 0.0000 0.0001 1.0000
vn -0.0001 0.0000 1.0000
vn 0.0001 0.0000 1.0000
vn -0.0001 -0.0001 1.0000
vn 0.7071 0.7071 0.0000
vn -0.0003 0.0001 1.0000
vn 0.0001 0.0001 1.0000
vn 0.0001 -0.0001 1.0000
vn 0.7071 -0.7071 0.0000
vn -0.7071 -0.7071 0.0000
vn -0.7071 0.7071 0.0000
vn 0.0000 0.7071 -0.7071
vn -0.0068 -0.4945 -0.8692
vn 0.4392 0.0000 -0.8984
vn 0.0000 -0.7071 -0.7071
vn -0.7071 0.0000 -0.7071
vn 0.7071 0.0000 -0.7071
vn -0.9938 0.1083 -0.0259
vn 0.0000 0.4933 -0.8699
vn 0.0000 0.9885 -0.1512
vn -0.9948 0.0720 -0.0720
vn -0.9948 0.0727 -0.0711
vn 0.9955 0.0914 -0.0233
vn 0.9963 0.0638 -0.0583
vn 0.9962 0.0621 -0.0605
vn 0.9940 -0.0806 -0.0739
vn 0.9910 -0.1322 -0.0218
vn -0.9950 -0.0974 -0.0219
vn 0.0000 -0.3114 -0.9503
vn 0.0000 -0.9968 -0.0804
vn 0.9937 -0.0590 -0.0954
vn -0.9963 -0.0723 -0.0471
vn -0.9964 -0.0600 -0.0595
vn -0.0001 0.0002 1.0000
vn -0.0001 0.0001 1.0000
vn 0.0000 -0.5082 -0.8612
vn 0.7553 -0.0103 -0.6553
vn 0.0000 0.4932 -0.8699
s off
f 1//1 20//1 16//1
f 36//1 70//1 37//1
f 10//1 23//1 24//1
f 5//2 2//2 10//2
f 11//3 60//3 63//3
f 1//1 3//1 20//1
f 17//3 78//3 82//3
f 48//1 67//1 49//1
f 20//4 89//4 93//4
f 16//2 20//2 22//2
f 22//5 15//5 14//5
f 19//3 13//3 15//3
f 21//4 14//4 12//4
f 18//1 12//1 13//1
f 77//1 1//1 16//1
f 70//1 83//1 79//1
f 53//1 66//1 54//1
f 67//1 66//1 53//1
f 35//5 26//5 27//5
f 7//6 6//6 28//6
f 89//1 4//1 9//1
f 76//1 46//1 72//1
f 61//2 8//2 26//2
f 80//3 38//3 79//3
f 4//1 59//1 24//1
f 10//3 58//3 60//3
f 3//3 7//3 8//3
f 3//6 15//6 13//6
f 6//6 7//6 13//6
f 12//6 14//6 1//6
f 1//6 14//6 15//6
f 5//4 6//4 1//4
f 73//1 36//1 47//1
f 10//1 2//1 17//1
f 28//5 29//5 33//5
f 32//5 27//5 28//5
f 29//5 30//5 34//5
f 30//5 25//5 34//5
f 25//5 26//5 35//5
f 8//3 7//3 27//3
f 5//2 11//2 30//2
f 56//7 31//7 38//7
f 42//8 35//8 50//8
f 6//4 5//4 29//4
f 66//1 94//1 90//1
f 35//5 43//5 44//5
f 16//2 21//2 18//2
f 90//4 42//4 50//4
f 39//9 34//9 41//9
f 73//1 46//1 76//1
f 34//5 25//5 44//5
f 51//10 31//10 55//10
f 24//4 23//4 74//4
f 9//6 24//6 75//6
f 38//11 40//11 39//11
f 37//12 38//12 39//12
f 49//2 53//2 51//2
f 42//13 44//13 43//13
f 74//6 23//6 17//6
f 50//14 52//14 51//14
f 19//2 65//2 68//2
f 55//15 57//15 56//15
f 47//16 41//16 42//16
f 54//17 50//17 51//17
f 48//18 49//18 55//18
f 47//6 36//6 39//6
f 58//1 24//1 59//1
f 62//5 64//5 63//5
f 60//18 58//18 59//18
f 63//18 60//18 61//18
f 59//2 4//2 8//2
f 69//19 82//19 83//19
f 74//20 73//20 76//20
f 71//21 75//21 76//21
f 65//22 93//22 94//22
f 68//23 65//23 66//23
f 74//24 69//24 70//24
f 20//2 65//2 19//2
f 68//19 67//19 84//19
f 67//1 48//1 80//1
f 81//25 85//25 77//25
f 16//3 68//3 81//3
f 86//19 85//19 88//19
f 87//26 88//26 80//26
f 77//27 85//27 86//27
f 80//28 88//28 84//28
f 84//29 88//29 85//29
f 78//30 86//30 82//30
f 83//31 87//31 79//31
f 83//32 82//32 86//32
f 71//22 72//22 95//22
f 90//33 98//33 95//33
f 72//1 46//1 90//1
f 92//34 96//34 89//34
f 9//4 71//4 92//4
f 89//35 91//35 93//35
f 96//22 98//22 97//22
f 98//36 90//36 97//36
f 89//37 96//37 91//37
f 92//38 95//38 98//38
f 94//39 97//39 90//39
f 94//40 93//40 91//40
f 10//1 24//1 58//1
f 5//2 10//2 11//2
f 11//3 63//3 30//3
f 17//3 82//3 69//3
f 20//4 93//4 65//4
f 16//2 22//2 21//2
f 22//5 14//5 21//5
f 19//3 15//3 22//3
f 21//4 12//4 18//4
f 18//1 13//1 19//1
f 1//1 78//1 2//1
f 2//1 78//1 17//1
f 78//1 1//1 77//1
f 70//1 79//1 37//1
f 67//1 53//1 49//1
f 35//5 27//5 32//5
f 7//6 28//6 27//6
f 4//1 89//1 3//1
f 3//1 89//1 20//1
f 61//2 26//2 62//2
f 56//3 80//3 48//3
f 79//3 38//3 37//3
f 56//3 38//3 80//3
f 4//1 24//1 9//1
f 10//3 60//3 11//3
f 3//3 8//3 4//3
f 3//6 13//6 7//6
f 6//6 13//6 12//6
f 12//6 1//6 6//6
f 1//6 15//6 3//6
f 5//4 1//4 2//4
f 36//1 73//1 70//1
f 73//1 47//1 46//1
f 10//1 17//1 23//1
f 28//5 33//5 31//5
f 32//5 28//5 31//5
f 29//5 34//5 33//5
f 25//5 63//5 64//5
f 63//5 25//5 30//5
f 26//5 25//5 62//5
f 62//5 25//5 64//5
f 8//3 27//3 26//3
f 5//2 30//2 29//2
f 40//7 38//7 33//7
f 33//7 38//7 31//7
f 31//7 56//7 57//7
f 52//8 50//8 32//8
f 32//8 50//8 35//8
f 35//8 42//8 43//8
f 6//4 29//4 28//4
f 66//1 90//1 54//1
f 35//5 44//5 25//5
f 16//2 18//2 68//2
f 42//4 90//4 46//4
f 90//4 50//4 54//4
f 45//9 41//9 34//9
f 34//9 39//9 33//9
f 33//9 39//9 40//9
f 34//5 44//5 45//5
f 57//10 55//10 31//10
f 31//10 51//10 32//10
f 32//10 51//10 52//10
f 24//4 74//4 75//4
f 9//6 75//6 71//6
f 37//12 39//12 36//12
f 49//2 51//2 55//2
f 45//41 44//41 41//41
f 41//42 44//42 42//42
f 74//6 17//6 69//6
f 19//2 68//2 18//2
f 47//16 42//16 46//16
f 54//17 51//17 53//17
f 48//18 55//18 56//18
f 47//6 39//6 41//6
f 60//18 59//18 61//18
f 63//18 61//18 62//18
f 59//2 8//2 61//2
f 69//19 83//19 70//19
f 74//43 76//43 75//43
f 71//21 76//21 72//21
f 65//22 94//22 66//22
f 68//23 66//23 67//23
f 74//44 70//44 73//44
f 20//2 19//2 22//2
f 68//19 84//19 81//19
f 67//1 80//1 84//1
f 16//3 81//3 77//3
f 86//19 88//19 87//19
f 87//45 80//45 79//45
f 77//27 86//27 78//27
f 84//29 85//29 81//29
f 83//32 86//32 87//32
f 71//22 95//22 92//22
f 72//1 90//1 95//1
f 9//4 92//4 89//4
f 96//22 97//22 91//22
f 92//38 98//38 96//38
f 94//40 91//40 97//40
o Cube.010_Cube.001
v -23.160412 89.400360 -20.819065
v -159.534698 89.400360 -20.819065
v -23.160412 62.809341 -20.819065
v -144.137375 62.809341 -20.819065
v -159.534698 89.400360 13.321915
v -23.160416 89.400360 13.321915
v -23.160416 62.809341 13.321915
v -144.137375 62.809341 13.321915
v -145.547256 61.734619 -20.819065
v -159.534698 71.865318 -20.819065
v -159.534698 71.865318 13.321915
v -23.160412 86.526253 -1.903816
v -23.160412 78.002510 -1.903816
v -23.160412 86.526253 -10.434753
v -23.160412 78.002510 -10.434753
v -21.822702 90.545181 -20.819065
v -160.871643 90.545181 -20.819065
v -21.822702 86.526253 -1.903816
v -21.822702 78.002510 -1.903816
v -21.822702 61.734619 -20.819065
v -21.822702 86.526253 -10.434753
v -21.822702 78.002510 -10.434753
v -160.871643 70.336563 -20.819065
v -145.547256 70.336563 -20.819065
v -146.637375 69.365318 16.138657
v -144.137375 62.809341 16.138657
v -23.160410 62.809341 16.138657
v -23.160410 89.400360 16.138657
v -159.534698 89.400360 16.138657
v -159.534698 71.865318 16.138657
v -20.660410 91.900360 16.138657
v -20.660410 60.309341 16.138657
v -162.034683 91.900360 16.138657
v -162.034698 69.365318 16.138657
v -146.637375 60.309341 16.138657
v -172.878601 101.740608 14.796886
v -170.878601 103.740608 14.796886
v -170.878601 103.740608 16.139561
v -172.878601 101.740608 16.139561
v -171.527802 102.265701 16.139446
v -172.878601 51.350891 16.139561
v -170.878601 49.350891 16.139561
v -171.033081 50.121597 16.139496
v -171.288361 50.563789 16.139507
v -171.925842 51.109375 16.139477
v -170.878601 49.350891 14.796886
v -172.878601 51.350891 14.796886
v -11.250225 103.740608 14.796886
v -9.250223 101.740608 14.796886
v -11.250229 49.350891 16.139561
v -9.250229 51.350891 16.139561
v -10.692709 50.736259 16.139446
v -9.250223 51.350891 14.796886
v -11.250225 49.350891 14.796886
v -9.250229 101.740608 16.139561
v -11.250229 103.740608 16.139561
v -10.638046 102.300484 16.139450
v -145.049667 71.865318 -20.819065
v -144.137375 70.953026 -20.819065
v -145.049667 71.865318 13.321915
v -144.137375 70.953026 13.321915
v -144.137375 70.953026 16.138657
v -145.049667 71.865318 16.138657
v -144.782455 71.220238 16.138657
v -21.822704 61.734619 12.487003
v -19.512476 59.424393 14.797161
v -19.512476 92.855408 14.797169
v -21.822704 90.545181 12.487003
v -160.871643 90.545181 12.487003
v -163.181870 92.855408 14.797161
v -145.547256 61.734619 12.487003
v -150.272919 59.424393 14.797169
v -162.820618 66.249344 14.797169
v -160.871643 70.336563 12.487003
v -145.547256 70.336563 12.487003
v -150.272919 66.421600 14.797169
v -91.235588 90.545181 -20.819065
v -91.457352 90.545181 -20.819065
v -91.536552 103.740608 14.796886
v -91.159210 103.740608 14.796886
v -90.367813 90.545181 12.487003
v -92.237656 90.545181 12.487003
v -92.233803 92.855408 14.797161
v -90.371666 92.855408 14.797169
v -90.956787 95.088203 8.890518
v -91.736153 95.088203 8.890518
v -91.732300 97.398438 11.200680
v -90.960632 97.398438 11.200680
v -85.755554 61.734619 -20.819065
v -85.755554 49.350891 14.796886
v -85.321564 59.248398 10.000721
v -86.487572 61.734619 12.487003
v -85.023544 61.734619 12.487003
v -85.024796 59.424393 14.797161
v -86.572067 59.424393 14.797169
v -86.101227 59.248398 10.000721
v -85.322807 56.938171 12.310875
v -86.185730 56.938171 12.310879
vn 0.0000 0.0000 -1.0000
vn 1.0000 0.0000 0.0000
vn 0.0000 1.0000 0.0000
vn 0.0000 -1.0000 -0.0000
vn 0.0000 0.0000 1.0000
vn -1.0000 0.0000 0.0000
vn 0.0000 -0.0001 1.0000
vn 0.0000 0.0001 1.0000
vn 0.0001 0.0000 1.0000
vn -0.0001 0.0000 1.0000
vn 0.0001 -0.0001 1.0000
vn -0.7071 0.7071 0.0000
vn 0.0003 0.0001 1.0000
vn -0.0001 0.0001 1.0000
vn -0.0001 -0.0001 1.0000
vn -0.7071 -0.7071 0.0000
vn 0.7071 -0.7071 0.0000
vn 0.7071 0.7071 0.0000
vn 0.0000 0.7071 -0.7071
vn 0.0068 -0.4945 -0.8692
vn -0.4392 0.0000 -0.8984
vn 0.0000 -0.7071 -0.7071
vn 0.7071 0.0000 -0.7071
vn -0.7071 0.0000 -0.7071
vn 0.9938 0.1083 -0.0259
vn 0.0000 0.4932 -0.8699
vn 0.0000 0.9885 -0.1512
vn 0.9948 0.0720 -0.0720
vn 0.9948 0.0727 -0.0711
vn -0.9955 0.0914 -0.0233
vn -0.9963 0.0638 -0.0583
vn -0.9962 0.0621 -0.0605
vn -0.9940 -0.0806 -0.0739
vn -0.9910 -0.1322 -0.0218
vn 0.9950 -0.0974 -0.0219
vn -0.0000 -0.3114 -0.9503
vn 0.0000 -0.9968 -0.0804
vn -0.9937 -0.0590 -0.0954
vn 0.9963 -0.0723 -0.0471
vn 0.9964 -0.0600 -0.0595
vn 0.0001 0.0002 1.0000
vn 0.0001 0.0001 1.0000
vn 0.0000 -0.5082 -0.8612
vn -0.7553 -0.0103 -0.6553
vn 0.0000 0.4933 -0.8699
vn 0.0000 0.9885 -0.1511
s off
f 99//46 114//46 118//46
f 134//46 135//46 168//46
f 108//46 122//46 121//46
f 103//47 108//47 100//47
f 109//48 161//48 158//48
f 99//46 118//46 101//46
f 115//48 180//48 176//48
f 146//46 147//46 165//46
f 118//49 191//49 187//49
f 114//47 120//47 118//47
f 120//50 112//50 113//50
f 117//48 113//48 111//48
f 119//49 110//49 112//49
f 116//46 111//46 110//46
f 175//46 114//46 99//46
f 168//46 177//46 181//46
f 151//46 152//46 164//46
f 165//46 151//46 164//46
f 133//50 125//50 124//50
f 105//51 126//51 104//51
f 187//46 107//46 102//46
f 174//46 170//46 144//46
f 159//47 124//47 106//47
f 178//48 177//48 136//48
f 102//46 122//46 157//46
f 108//48 158//48 156//48
f 101//48 106//48 105//48
f 101//51 111//51 113//51
f 104//51 111//51 105//51
f 110//51 99//51 112//51
f 99//51 113//51 112//51
f 103//49 99//49 104//49
f 171//46 145//46 134//46
f 108//46 115//46 100//46
f 126//50 131//50 127//50
f 130//50 126//50 125//50
f 127//50 132//50 128//50
f 128//50 132//50 123//50
f 123//50 133//50 124//50
f 106//48 125//48 105//48
f 103//47 128//47 109//47
f 154//52 136//52 129//52
f 140//53 148//53 133//53
f 104//49 127//49 103//49
f 164//46 188//46 192//46
f 133//50 142//50 141//50
f 114//47 116//47 119//47
f 188//49 148//49 140//49
f 137//54 139//54 132//54
f 171//46 174//46 144//46
f 132//50 142//50 123//50
f 149//55 153//55 129//55
f 122//49 172//49 121//49
f 107//51 173//51 122//51
f 136//56 137//56 138//56
f 135//57 137//57 136//57
f 147//47 149//47 151//47
f 140//58 141//58 142//58
f 172//51 115//51 121//51
f 148//59 149//59 150//59
f 117//47 166//47 163//47
f 153//60 154//60 155//60
f 145//61 140//61 139//61
f 152//62 149//62 148//62
f 146//63 153//63 147//63
f 145//51 137//51 134//51
f 156//46 157//46 122//46
f 160//50 161//50 162//50
f 158//63 157//63 156//63
f 161//63 159//63 158//63
f 157//47 106//47 102//47
f 167//64 181//64 180//64
f 172//65 174//65 171//65
f 169//66 174//66 173//66
f 163//67 192//67 191//67
f 166//68 164//68 163//68
f 172//69 168//69 167//69
f 118//47 117//47 163//47
f 166//64 182//64 165//64
f 165//46 178//46 146//46
f 179//70 175//70 183//70
f 114//48 179//48 166//48
f 184//64 186//64 183//64
f 185//71 178//71 186//71
f 175//72 184//72 183//72
f 178//73 182//73 186//73
f 182//74 183//74 186//74
f 176//75 180//75 184//75
f 181//76 177//76 185//76
f 181//77 184//77 180//77
f 169//67 193//67 170//67
f 188//78 193//78 196//78
f 170//46 188//46 144//46
f 190//79 187//79 194//79
f 107//49 190//49 169//49
f 187//80 191//80 189//80
f 194//67 195//67 196//67
f 196//81 195//81 188//81
f 187//82 189//82 194//82
f 190//83 196//83 193//83
f 192//84 188//84 195//84
f 192//85 189//85 191//85
f 108//46 156//46 122//46
f 103//47 109//47 108//47
f 109//48 128//48 161//48
f 115//48 167//48 180//48
f 118//49 163//49 191//49
f 114//47 119//47 120//47
f 120//50 119//50 112//50
f 117//48 120//48 113//48
f 119//49 116//49 110//49
f 116//46 117//46 111//46
f 99//46 100//46 176//46
f 100//46 115//46 176//46
f 176//46 175//46 99//46
f 168//46 135//46 177//46
f 165//46 147//46 151//46
f 133//50 130//50 125//50
f 105//51 125//51 126//51
f 102//46 101//46 187//46
f 101//46 118//46 187//46
f 159//47 160//47 124//47
f 154//48 146//48 178//48
f 177//48 135//48 136//48
f 154//48 178//48 136//48
f 102//46 107//46 122//46
f 108//48 109//48 158//48
f 101//48 102//48 106//48
f 101//51 105//51 111//51
f 104//51 110//51 111//51
f 110//51 104//51 99//51
f 99//51 101//51 113//51
f 103//49 100//49 99//49
f 134//46 168//46 171//46
f 171//46 144//46 145//46
f 108//46 121//46 115//46
f 126//50 129//50 131//50
f 130//50 129//50 126//50
f 127//50 131//50 132//50
f 123//50 162//50 161//50
f 161//50 128//50 123//50
f 124//50 160//50 123//50
f 160//50 162//50 123//50
f 106//48 124//48 125//48
f 103//47 127//47 128//47
f 138//52 131//52 136//52
f 131//52 129//52 136//52
f 129//52 155//52 154//52
f 150//53 130//53 148//53
f 130//53 133//53 148//53
f 133//53 141//53 140//53
f 104//49 126//49 127//49
f 164//46 152//46 188//46
f 133//50 123//50 142//50
f 114//47 166//47 116//47
f 140//49 144//49 188//49
f 188//49 152//49 148//49
f 143//54 132//54 139//54
f 132//54 131//54 137//54
f 131//54 138//54 137//54
f 132//50 143//50 142//50
f 155//55 129//55 153//55
f 129//55 130//55 149//55
f 130//55 150//55 149//55
f 122//49 173//49 172//49
f 107//51 169//51 173//51
f 135//57 134//57 137//57
f 147//47 153//47 149//47
f 143//86 139//86 142//86
f 139//87 140//87 142//87
f 172//51 167//51 115//51
f 117//47 116//47 166//47
f 145//61 144//61 140//61
f 152//62 151//62 149//62
f 146//63 154//63 153//63
f 145//51 139//51 137//51
f 158//63 159//63 157//63
f 161//63 160//63 159//63
f 157//47 159//47 106//47
f 167//64 168//64 181//64
f 172//88 173//88 174//88
f 169//66 170//66 174//66
f 163//67 164//67 192//67
f 166//68 165//68 164//68
f 172//89 171//89 168//89
f 118//47 120//47 117//47
f 166//64 179//64 182//64
f 165//46 182//46 178//46
f 114//48 175//48 179//48
f 184//64 185//64 186//64
f 185//90 177//90 178//90
f 175//91 176//91 184//91
f 182//74 179//74 183//74
f 181//77 185//77 184//77
f 169//67 190//67 193//67
f 170//46 193//46 188//46
f 107//49 187//49 190//49
f 194//67 189//67 195//67
f 190//83 194//83 196//83
f 192//85 195//85 189//85
